PathFileType	4	(X/Y/Z)	D:\TRACE\v60_Jaco2_6-2-23\JustBodyDRS_Motion3_5-platform.trc
DataRate	CameraRate	NumFrames	NumMarkers	Units	OrigDataRate	OrigDataStartFrame	OrigNumFrames
100.00	100.00	      35	5	mm	100.00	5251	      7000
Frame#	Time	Left_Front			Right_Front			Left_Aft			Right_Aft			Post			
		X1	Y1	Z1	X2	Y2	Z2	X3	Y3	Z3	X4	Y4	Z4	X5	Y5	Z5	

5251	52.500	-772.74017	-28.88971	-658.50916	797.91083	-30.24402	-636.36029	-704.42322	36.62290	473.33102	710.70721	39.76505	578.78265	23.60553	1248.18237	-1046.09399	
5252	52.510	-772.34399	-28.98268	-658.53845	798.41302	-30.23001	-636.33313	-703.78192	36.63548	473.28894	710.72351	39.83628	578.85956	24.01400	1248.09412	-1046.56409	
5253	52.520	-772.37305	-29.70560	-658.49152	798.68561	-30.28572	-636.31470	-703.36603	36.69654	473.27213	711.31799	39.62856	578.72998	23.87791	1247.89270	-1046.66675	
5254	52.530	-771.77429	-29.18329	-658.85077	799.18701	-30.32950	-636.24811	-703.01410	36.72132	473.21268	711.72211	39.59988	578.74152	24.30565	1247.72095	-1046.74048	
5255	52.540	-771.21631	-29.05389	-658.86664	799.56036	-30.45151	-636.23218	-702.75964	36.71062	473.13742	711.98889	39.55391	578.77124	25.04873	1247.87952	-1046.87781	
5256	52.550	-770.83490	-29.19914	-658.84894	799.84924	-30.44448	-636.34338	-702.40607	36.69444	473.14175	712.36255	39.59277	578.72278	25.43967	1247.97168	-1046.82397	
5257	52.560	-770.32428	-29.27412	-658.89227	800.32672	-30.44547	-636.34253	-702.00543	36.71542	473.20682	712.90778	39.61425	578.67316	25.76866	1248.12146	-1046.71582	
5258	52.570	-769.92029	-29.27953	-658.83844	800.71844	-30.37417	-636.38507	-701.58118	36.75156	473.18057	713.20526	39.68605	578.62408	26.19662	1248.22681	-1046.50244	
5259	52.580	-769.65558	-29.08200	-658.70636	801.00134	-30.39036	-636.42310	-701.15045	36.73285	473.16925	713.64624	39.71852	578.63892	26.52547	1248.34973	-1046.19958	
5260	52.590	-769.24176	-29.09425	-658.76587	801.19434	-30.42585	-636.48120	-700.71851	36.65751	473.24780	713.97308	39.60733	578.87207	26.93641	1248.34729	-1045.74390	
5261	52.600	-768.90411	-29.00266	-658.74323	801.56995	-30.39507	-636.45398	-700.40942	36.59113	473.21014	714.21674	39.59115	578.90607	27.28835	1248.14966	-1045.14136	
5262	52.610	-768.62561	-28.90617	-658.64795	801.95941	-30.38225	-636.36816	-700.03455	36.58212	473.23474	714.69574	39.56979	578.79742	27.60863	1248.28833	-1045.13623	
5263	52.620	-768.41193	-28.56429	-658.75287	802.43378	-30.25804	-636.31201	-699.66003	36.64140	473.32208	715.20142	39.60867	578.80493	27.99090	1248.57947	-1045.35229	
5264	52.630	-768.04120	-28.25372	-658.99225	802.96381	-30.03090	-636.37634	-699.29865	36.62151	473.38669	715.65741	39.63616	578.81354	28.30325	1248.59326	-1045.50574	
5265	52.640	-767.61432	-28.58175	-658.98999	803.29535	-29.88851	-636.36499	-698.97546	36.53418	473.47818	716.05011	39.68236	578.85370	28.65059	1248.61853	-1045.55811	
5266	52.650	-767.34149	-28.65674	-658.74493	803.66821	-29.93504	-636.35724	-698.49298	36.38758	473.57498	716.52966	39.49477	578.88177	29.19653	1248.69617	-1045.70398	
5267	52.660	-766.84076	-28.99087	-658.85187	804.04608	-29.83806	-636.39209	-698.20502	36.29203	473.66058	716.84583	39.29262	578.96460	29.55741	1248.77051	-1045.81116	
5268	52.670	-766.50958	-28.35884	-658.64044	804.42590	-29.67521	-636.29388	-697.98199	36.21576	473.59897	717.03687	39.15382	579.04401	29.82229	1248.99084	-1045.80054	
5269	52.680	-766.10651	-27.98938	-658.37750	804.68506	-29.28682	-636.28290	-697.82990	36.44879	473.42429	717.33099	38.93321	578.98425	30.26959	1249.43738	-1045.59741	
5270	52.690	-765.69012	-27.64084	-658.49066	805.09692	-29.06416	-636.20044	-697.33759	36.25230	473.64777	717.86743	38.78845	578.99579	30.83945	1250.06848	-1045.00000	
5271	52.700	-765.45581	-27.16553	-658.78796	805.46973	-28.94463	-636.11731	-696.87567	36.07177	473.74112	718.20544	38.72841	579.06702	31.05864	1250.35437	-1044.62598	
5272	52.710	-765.07361	-27.26257	-658.56042	805.75220	-28.85422	-636.15509	-696.42499	35.88316	473.80481	718.51831	38.53378	579.14111	31.24417	1250.51123	-1044.15552	
5273	52.720	-764.86047	-27.27857	-658.62341	806.01422	-28.78911	-636.17841	-696.34222	35.94876	473.77841	718.64545	38.38302	579.16467	31.66097	1250.67212	-1043.28455	
5274	52.730	-764.73553	-27.13579	-658.56647	806.26044	-28.59360	-636.07178	-696.07898	36.06576	473.73056	719.04651	38.31181	579.31989	32.03621	1250.95166	-1042.46667	
5275	52.740	-764.32971	-26.72238	-658.24396	806.45453	-28.36694	-636.10376	-695.55682	35.94235	473.88431	719.44830	38.28916	579.40631	32.08110	1251.26343	-1041.87109	
5276	52.750	-764.15771	-26.56749	-658.22815	806.90430	-28.16308	-636.07343	-695.06110	35.44905	473.89261	719.77161	38.09299	579.41907	32.13277	1251.68518	-1041.02832	
5277	52.760	-763.89264	-26.51939	-658.33417	807.20422	-28.12718	-636.08636	-694.82208	35.25151	473.90393	720.06366	37.94681	579.44177	32.56501	1251.98975	-1040.22900	
5278	52.770	-763.73969	-26.88011	-658.76929	807.41132	-28.01740	-636.06885	-694.62262	35.11012	473.97934	720.16534	37.74863	579.48425	33.03341	1252.17529	-1039.77478	
5279	52.780	-763.32001	-26.54380	-658.55585	807.76544	-27.83166	-635.96655	-694.22211	34.99043	474.07373	720.53540	37.55565	579.50232	33.21395	1252.37708	-1039.76733	
5280	52.790	-762.56189	-26.67686	-658.34479	808.14722	-27.48297	-635.78796	-693.93878	34.82695	474.19388	720.85571	37.55127	579.57349	33.30462	1252.41064	-1039.48853	
5281	52.800	-762.09851	-26.09949	-658.16010	808.34796	-27.17151	-635.67804	-693.79181	34.71017	474.23041	721.15118	37.38688	579.63470	33.68953	1252.72900	-1039.51477	
5282	52.810	-761.96429	-26.20784	-658.35950	808.58087	-26.82035	-635.71143	-693.64246	34.58485	474.17575	721.41199	37.06977	579.72974	33.95415	1253.71667	-1039.62012	
5283	52.820	-761.76324	-25.56681	-657.93140	808.91046	-26.53341	-635.71887	-693.28723	34.23595	474.33252	721.66187	36.83233	579.80469	34.09072	1254.10730	-1039.50684	
5284	52.830	-761.46753	-25.52687	-657.91937	809.10638	-26.27072	-635.72443	-692.91077	33.96074	474.51587	721.79352	36.51746	579.84711	34.48906	1254.45618	-1039.15234	
5285	52.840	-761.28241	-25.10012	-657.75037	809.19550	-26.00129	-635.71161	-692.71655	33.98462	474.47601	721.97235	36.20838	580.00311	34.94464	1254.71777	-1038.65479	
